<svg xmlns="http://www.w3.org/2000/svg" viewBox="0 0 64 64">
  <defs>
    <radialGradient id="bg" cx="35%" cy="30%" r="70%">
      <stop offset="0%" stop-color="#ffffff"/>
      <stop offset="40%" stop-color="#c8f0c8"/>
      <stop offset="100%" stop-color="#2d6a2d"/>
    </radialGradient>
    <radialGradient id="shine" cx="30%" cy="25%" r="40%">
      <stop offset="0%" stop-color="#ffffff" stop-opacity="0.5"/>
      <stop offset="100%" stop-color="#ffffff" stop-opacity="0"/>
    </radialGradient>
  </defs>
  <circle cx="32" cy="32" r="30" fill="url(#bg)" stroke="#1a4a1a" stroke-width="2"/>
  <path d="M32 8 L39 14 L37 22 L27 22 L25 14 Z" fill="#1a2e1a" opacity="0.9"/>
  <path d="M48 20 L55 24 L54 33 L47 37 L41 31 L44 22 Z" fill="#1a2e1a" opacity="0.9"/>
  <path d="M16 20 L23 22 L26 31 L20 37 L13 33 L12 24 Z" fill="#1a2e1a" opacity="0.9"/>
  <path d="M20 46 L27 41 L37 41 L44 46 L41 55 L32 57 L23 55 Z" fill="#1a2e1a" opacity="0.9"/>
  <circle cx="32" cy="32" r="30" fill="url(#shine)"/>
</svg>
